<?xml version="1.0" encoding="UTF-8" standalone="no"?>
<!-- Created with Inkscape (http://www.inkscape.org/) -->

<svg
   xmlns:dc="http://purl.org/dc/elements/1.1/"
   xmlns:cc="http://creativecommons.org/ns#"
   xmlns:rdf="http://www.w3.org/1999/02/22-rdf-syntax-ns#"
   xmlns:svg="http://www.w3.org/2000/svg"
   xmlns="http://www.w3.org/2000/svg"
   xmlns:sodipodi="http://sodipodi.sourceforge.net/DTD/sodipodi-0.dtd"
   xmlns:inkscape="http://www.inkscape.org/namespaces/inkscape"
   id="svg3105"
   version="1.1"
   inkscape:version="0.48.4 r9939"
   width="890"
   height="886"
   sodipodi:docname="umbrella2.png">
  <metadata
     id="metadata3111">
    <rdf:RDF>
      <cc:Work
         rdf:about="">
        <dc:format>image/svg+xml</dc:format>
        <dc:type
           rdf:resource="http://purl.org/dc/dcmitype/StillImage" />
        <dc:title></dc:title>
      </cc:Work>
    </rdf:RDF>
  </metadata>
  <defs
     id="defs3109" />
  <sodipodi:namedview
     pagecolor="#ffffff"
     bordercolor="#666666"
     borderopacity="1"
     objecttolerance="10"
     gridtolerance="10"
     guidetolerance="10"
     inkscape:pageopacity="0"
     inkscape:pageshadow="2"
     inkscape:window-width="640"
     inkscape:window-height="480"
     id="namedview3107"
     showgrid="false"
     inkscape:zoom="0.26636569"
     inkscape:cx="445"
     inkscape:cy="443"
     inkscape:window-x="53"
     inkscape:window-y="24"
     inkscape:window-maximized="0"
     inkscape:current-layer="svg3105" />
  <g
     id="g3397">
    <path
       style="fill:#ffffff"
       d="M 0,443 0,0 l 445,0 445,0 0,443 0,443 -445,0 -445,0 0,-443 z"
       id="path3401"
       inkscape:connector-curvature="0" />
    <path
       style="fill:#0586e9"
       d="M 376.61366,884.91967 C 323.63642,879.89663 284.90557,855.74225 273.31857,820.5 c -2.21366,-6.73294 -2.64516,-9.90058 -2.72441,-20 -0.11003,-14.02222 1.27759,-18.00333 8.94891,-25.67464 13.96144,-13.96145 39.11253,-15.88772 56.23226,-4.30672 6.29279,4.25689 10.41929,9.66684 13.22366,17.33654 3.08891,8.44789 5.15177,12.02565 8.78793,15.24153 6.84838,6.05684 17.05237,9.67484 28.64542,10.15671 5.56345,0.23125 5.97697,0.0911 6.65032,-2.25342 0.39489,-1.375 0.76723,-38.05 0.82743,-81.5 l 0.10945,-79 2.33506,-5 c 2.87758,-6.16168 6.64842,-10.72071 11.18762,-13.5261 L 411,629.83688 411,480.41844 c 0,-118.87439 -0.25552,-149.41602 -1.25,-149.40661 -2.8413,0.0269 -21.4245,5.10421 -29.53359,8.06922 -18.42567,6.73716 -39.83451,18.92303 -54.71641,31.14447 -7.68643,6.31232 -25.68307,24.07951 -31.50389,31.10224 -6.40342,7.72561 -10.05162,9.9763 -16.98361,10.47772 -9.7305,0.70384 -11.74962,-0.51802 -25.02544,-15.14399 C 230.95582,373.49135 212.49902,359.05764 189.05643,347.44804 139.49851,322.9052 83.201811,321.67766 33,344.04525 22.867243,348.55994 16.253313,348.68309 9.4722616,344.48333 3.4220123,340.73619 0,334.71289 0,327.8106 0,320.87759 1.6597781,317.64808 12.073852,304.31794 36.795104,272.67445 53.393862,253.65255 78.973412,227.65216 134.55104,171.16016 190.29059,130.48259 274.5,84.960906 296.78232,72.915593 435.81377,3.6861785 442.37573,1.3687545 448.77893,-0.89260436 452.83364,-0.29784713 463,4.3939843 c 5.225,2.4113661 19.68914,9.1239527 32.14253,14.9168587 12.45338,5.792906 41.47838,18.714459 64.5,28.714563 89.51478,38.883339 118.17775,53.317304 155.85747,78.485994 55.65727,37.17703 103.14002,86.54064 149.26032,155.17271 18.03071,26.83169 24.07174,37.01317 24.78557,41.77331 1.9399,12.93621 -10.02824,25.16022 -22.65649,23.14089 -2.03204,-0.32494 -7.45095,-2.19934 -12.04201,-4.16534 -11.13317,-4.76748 -28.07724,-9.81636 -40.34739,-12.02245 -13.78281,-2.47805 -46.02564,-2.50708 -59.5,-0.0536 -46.80207,8.52209 -84.71359,30.84961 -117.81876,69.38789 C 625.11259,413.79417 621.92504,416 613.69165,416 606.7151,416 601.39624,412.52594 593.02286,402.5 560.91821,364.0592 520.43865,339.21451 476.75,331.13648 l -4.75,-0.87827 0,149.12275 0,149.12276 4.70874,3.49814 c 6.32961,4.70229 10.9447,10.99821 12.83931,17.51542 2.30803,7.93935 1.5985,154.90049 -0.80495,166.72498 -2.60348,12.80856 -6.64535,23.44404 -11.8891,31.28409 -9.17227,13.71369 -26.79513,27.73756 -40.77329,32.44646 -13.28333,4.47483 -40.53559,6.74185 -59.46705,4.94686 z M 102.9504,726.00098 C 82.709981,723.53821 62.773874,712.89946 46.493602,695.87324 21.269033,669.49291 13.505655,638.94528 22.890785,603 c 6.149594,-23.5531 8.724434,-29.95713 28.546666,-71 8.898612,-18.425 25.603027,-53.42691 37.120922,-77.78203 20.655407,-43.6768 20.979977,-44.27817 23.747557,-44 2.67188,0.26856 4.16992,3.14844 31.3571,60.28203 50.50909,106.14435 49.56355,104.01952 55.66637,125.09314 5.21936,18.02298 6.04494,22.89059 6.00527,35.40686 -0.0472,14.88758 -2.69822,26.12089 -9.32191,39.5 -18.03337,36.4254 -57.31249,59.85087 -93.06236,55.50098 z"
       id="path3399"
       inkscape:connector-curvature="0" />
  </g>
</svg>
